PathFileType	4	(X/Y/Z)	H:\MAC\Cortex8\Teaching\Biomec1_N_2\Trimmed_walk2.trc
DataRate	CameraRate	NumFrames	NumMarkers	Units	OrigDataRate	OrigDataStartFrame	OrigNumFrames
150.00	150.00	       9	28	mm	150.00	162	       184
Frame#	Time	R.ASIS			L.ASIS			R.PSIS			L.PSIS			L.Iliac.Crest			R.Iliac.Crest			R.GTR			R.Knee			R.HF			R.TT			R.Ankle			R.Heel			R.MT1			R.MT5			L.GTR			L.Knee			L.HF			L.TT			L.Ankle			L.Heel			L.MT1			L.MT5			R.Knee.Medial			R.Ankle.Medial			R.MT2			L.Knee.Medial			L.Ankle.Medial			L.MT2			V_Mid_ASIS			V_Mid_PSIS			V_Pelvis_Origin			V_R.Hip_JC			V_R.Knee_JC_Static			V_R.TT			V_R.Ankle_JC_Static			V_L.Hip_JC			V_Mid_Hip			V_R.MT2_Static			V_R.Knee.Medial			V_R.Ankle.Medial			V_R.TT			V_L.Knee_JC_Static			V_L.TT			V_L.Ankle_JC_Static			V_L.MT2_Static			V_R.Knee_JC			V_R.Ankle_JC			V_L.Knee_JC			V_L.Ankle_JC			V_R.TT_KJC_Static			V_L.TT_KJC_Static			V_R.TT_KJC			V_L.TT_KJC			V_R.MT2			V_L.MT2			
		X1	Y1	Z1	X2	Y2	Z2	X3	Y3	Z3	X4	Y4	Z4	X5	Y5	Z5	X6	Y6	Z6	X7	Y7	Z7	X8	Y8	Z8	X9	Y9	Z9	X10	Y10	Z10	X11	Y11	Z11	X12	Y12	Z12	X13	Y13	Z13	X14	Y14	Z14	X15	Y15	Z15	X16	Y16	Z16	X17	Y17	Z17	X18	Y18	Z18	X19	Y19	Z19	X20	Y20	Z20	X21	Y21	Z21	X22	Y22	Z22	X23	Y23	Z23	X24	Y24	Z24	X25	Y25	Z25	X26	Y26	Z26	X27	Y27	Z27	X28	Y28	Z28	

162.0	1.073	-280.78812	974.18134	-1711.29675	-535.67456	970.6333	-1724.57166	-365.98276	994.63348	-1511.13513	-443.31189	984.94183	-1509.43591	-582.5307	1032.77039	-1632.48279	-247.54758	1026.69446	-1637.82837	-221.36694	897.72626	-1621.73804	-283.41068	498.10168	-1497.21204	-291.78082	431.25629	-1491.94128	-345.60736	410.52606	-1544.95557	-347.94742	92.36416	-1376.96423	-398.69809	67.26907	-1312.67053	-387.36957	49.70299	-1536.07043	-304.3418	47.84301	-1503.71875	-618.27643	884.48248	-1674.09607	-595.56403	507.55875	-1796.16943	-596.42828	455.40204	-1831.78284	-541.22144	468.36652	-1891.92896	-564.6485	103.30781	-1951.13525	-504.16736	48.05458	-1913.12317	-513.78351	153.5416	-2108.59424	-600.62946	130.72762	-2086.89893	-421.60968	484.93887	-1513.06555	-432.88464	95.71889	-1417.5166	-349.98639	56.76081	-1532.0238	-453.19089	492.08609	-1810.34521	-481.69705	142.02855	-1979.7168	-549.82178	157.69592	-2097.61426
163.0	1.08	-280.72519	972.82648	-1719.21375	-535.62042	969.46808	-1733.49377	-366.94574	993.25323	-1518.9812	-444.23431	983.45544	-1517.83533	-582.83173	1031.5813	-1641.4342	-247.76062	1025.33691	-1645.63989	-221.7238	896.74329	-1629.19543	-283.83371	498.06036	-1502.27344	-292.11594	431.25076	-1496.40295	-345.82874	409.78357	-1549.39417	-347.92148	93.36572	-1377.51941	-398.66327	68.845	-1313.12537	-387.57294	49.71786	-1535.98413	-304.30432	47.75282	-1503.90198	-618.45642	883.19904	-1683.26257	-595.83868	506.11697	-1804.45251	-596.44214	454.13803	-1840.32336	-541.39038	468.29666	-1900.57068	-563.65686	104.30614	-1966.46057	-503.1987	48.61896	-1929.11511	-512.13739	157.31993	-2122.89282	-599.04224	133.847	-2101.9624	-422.36484	484.66953	-1518.49561	-432.76425	96.46228	-1418.26685	-349.8783	56.6657	-1532.07336	-453.22336	490.58035	-1818.52197	-480.63837	143.71306	-1993.98743	-548.02515	161.19061	-2111.94165
164.0	1.087	-280.77335	971.47809	-1727.37415	-535.73639	968.3255	-1742.31335	-367.58389	991.75214	-1527.26367	-445.05243	982.15326	-1526.36145	-583.23724	1030.3811	-1650.33154	-248.03284	1023.96997	-1653.52783	-222.06418	895.67432	-1636.85217	-284.29013	498.06113	-1507.57605	-292.41495	431.2695	-1501.03137	-346.06711	409.0993	-1553.9502	-347.83093	94.45444	-1378.14954	-398.67514	70.4726	-1313.78162	-387.54169	49.73113	-1536.12024	-304.31192	48.03489	-1503.72925	-618.6745	881.97723	-1692.52075	-596.03754	504.68887	-1812.73901	-596.48907	452.78378	-1848.92749	-541.45367	468.04922	-1909.22131	-562.63269	105.14994	-1980.77002	-502.31702	48.91121	-1944.05225	-510.46552	160.41936	-2136.23975	-597.45709	136.5757	-2115.99146	-422.43018	484.1012	-1524.47412	-432.59836	97.32098	-1419.05103	-349.79428	56.59917	-1532.11096	-453.21881	489.3616	-1826.82129	-479.56232	145.02464	-2007.4906	-546.72308	164.07826	-2125.54639
165.0	1.093	-280.89478	970.16663	-1735.55505	-535.92407	967.216	-1751.28528	-368.62521	990.67267	-1535.89795	-445.73016	980.85846	-1535.15967	-583.69067	1029.20081	-1659.30981	-248.35803	1022.6286	-1661.67432	-222.40761	894.66602	-1644.60498	-284.69266	498.05676	-1513.09753	-292.73868	431.34756	-1505.8363	-346.17691	408.45239	-1558.68933	-347.70337	95.67154	-1378.85278	-398.51648	72.4429	-1314.24963	-387.38293	49.6343	-1536.19702	-304.12045	47.78194	-1504.22278	-618.92285	880.86823	-1701.91467	-596.22638	503.27139	-1821.18677	-596.52606	451.45071	-1857.47131	-541.50189	467.70987	-1917.98108	-561.58032	105.67367	-1994.07141	-501.33035	49.03859	-1957.7832	-508.83966	162.82874	-2148.65308	-595.89771	138.65224	-2129.07837	-422.79309	483.69388	-1530.43848	-432.40005	98.28114	-1419.9165	-349.65826	56.56644	-1532.15442	-453.20236	488.39972	-1835.33362	-478.41248	145.8987	-2019.9928	-544.85974	166.33914	-2137.99805
166.0	1.1	-281.09665	968.91876	-1743.79102	-536.18115	966.12292	-1760.28955	-369.51657	989.36456	-1544.53503	-446.63297	979.57867	-1543.86694	-584.22296	1028.05945	-1668.28442	-248.72899	1021.25189	-1669.77209	-222.82735	893.66736	-1652.42566	-285.08017	498.04874	-1518.81604	-293.03226	431.43564	-1510.85474	-346.22479	407.77271	-1563.52502	-347.57217	97.05832	-1379.65015	-398.33502	74.57841	-1314.79883	-387.33777	49.6608	-1536.37439	-303.78296	47.39675	-1504.4386	-619.31207	879.836	-1711.48816	-596.31201	501.87927	-1829.81287	-596.50616	450.16165	-1866.34131	-541.53577	467.26727	-1926.84583	-560.48553	105.84836	-2006.31567	-500.29153	48.96349	-1970.36816	-507.34067	164.41615	-2160.2832	-594.48706	139.9173	-2141.14746	-423.10916	483.26495	-1536.56567	-432.18359	99.37223	-1420.86047	-350.38623	55.81486	-1531.4707	-453.23413	487.55161	-1843.87769	-477.35498	146.41193	-2031.63647	-543.61017	167.79019	-2149.77148
167.0	1.107	-281.3913	967.6701	-1752.23853	-536.54034	965.10828	-1769.32117	-370.4104	988.07898	-1553.2406	-447.63272	978.08801	-1552.65271	-584.79004	1026.92542	-1677.32312	-249.17661	1019.92444	-1677.97241	-223.40141	892.7724	-1660.36536	-285.50027	498.09027	-1524.74365	-293.35263	431.53119	-1516.10352	-346.31125	407.12704	-1568.57434	-347.39575	98.60924	-1380.55139	-397.98721	77.08581	-1315.16333	-387.28406	49.68586	-1536.59253	-303.68234	47.34351	-1504.57068	-619.79077	878.91815	-1721.13721	-596.3429	500.59763	-1838.56079	-596.42285	448.99606	-1875.31213	-541.50861	466.65274	-1935.80273	-559.42163	105.58875	-2017.44153	-499.17944	48.6562	-1981.70874	-505.98779	165.1937	-2170.97534	-593.23529	140.31332	-2152.13745	-423.43451	482.82706	-1542.86572	-431.92111	100.54831	-1421.81226	-350.33279	55.74357	-1531.42334	-453.27728	486.83817	-1852.7428	-476.31503	146.53168	-2042.39636	-542.24847	168.44879	-2160.73389
168.0	1.113	-281.76401	966.54199	-1760.72766	-536.96185	964.12665	-1778.41833	-371.27777	986.99023	-1561.90405	-448.59589	976.80286	-1561.5542	-585.40143	1025.81824	-1686.32935	-249.71266	1018.63837	-1686.34753	-224.04172	891.87274	-1668.48547	-285.96219	498.13217	-1530.99109	-293.66791	431.6308	-1521.64587	-346.37155	406.50748	-1573.89551	-347.17026	100.22205	-1381.61951	-397.64688	79.71922	-1315.91125	-387.22736	49.68874	-1536.85046	-303.82501	47.66072	-1504.71533	-620.36011	878.06744	-1730.92847	-596.27216	499.41437	-1847.59314	-596.2771	447.8985	-1884.53284	-541.44574	465.92444	-1944.82324	-558.315	104.87606	-2027.66016	-498.03381	48.08775	-1991.88525	-504.75079	165.09508	-2180.77441	-592.03912	139.84195	-2162.26636	-423.96454	482.39856	-1549.1283	-431.65402	101.87496	-1422.89636	-350.31488	55.68676	-1531.43494	-453.24542	486.2197	-1861.9425	-475.30405	146.15218	-2052.20923	-540.69342	168.15109	-2170.2981
169.0	1.12	-282.17917	965.45654	-1769.36658	-537.51074	963.23901	-1787.66187	-372.34024	985.65796	-1570.84534	-449.35358	975.59656	-1570.60925	-586.09045	1024.75305	-1695.40039	-250.30424	1017.45398	-1694.84155	-224.77686	891.06165	-1676.67505	-286.44345	498.1152	-1537.46204	-294.04572	431.72937	-1527.36304	-346.46353	405.87436	-1579.51624	-346.8819	102.04348	-1382.78906	-397.32242	82.5355	-1316.74341	-387.16492	49.6833	-1537.13574	-303.73233	47.60702	-1504.86426	-621.07141	877.33173	-1740.75891	-596.12537	498.42767	-1856.77246	-596.02332	446.90451	-1893.93945	-541.29004	465.00772	-1953.89539	-557.32898	103.82449	-2036.70044	-496.90784	47.13858	-2000.81567	-503.60028	164.16672	-2189.80298	-590.86969	138.57724	-2171.43701	-424.25784	482.01602	-1556.0332	-431.30682	103.35057	-1424.01563	-350.2438	55.68473	-1531.39734	-453.20401	485.72006	-1871.35486	-474.32639	145.32591	-2061.177	-539.67084	167.06578	-2179.54761
170.0	1.127	-282.68417	964.44751	-1778.12219	-538.11859	962.42059	-1796.95544	-373.13376	984.1803	-1579.82446	-450.35141	974.39386	-1579.62476	-586.82086	1023.72009	-1704.5675	-250.99922	1016.33313	-1703.4469	-225.6156	890.31244	-1685.09314	-286.9014	498.13168	-1544.21753	-294.37512	431.82965	-1533.422	-346.64532	405.26108	-1585.28015	-346.51736	104.00025	-1384.13831	-396.91797	85.57439	-1317.72473	-387.07504	49.6478	-1537.46387	-303.62094	47.55478	-1505.03955	-621.78601	876.68005	-1750.74243	-595.91833	497.6188	-1866.08203	-595.6842	445.99118	-1903.38318	-541.01105	463.91913	-1963.13635	-556.30957	102.32731	-2044.75037	-495.81686	45.83757	-2008.63806	-502.45581	162.38333	-2197.94409	-589.73297	136.64299	-2179.58496	-424.5571	481.65149	-1563.15784	-430.93893	104.93656	-1425.26794	-349.93213	55.45088	-1530.93347	-453.11542	485.30106	-1880.98108	-473.31967	143.91998	-2069.22339	-538.89459	165.23833	-2187.82886
